<svg width="69" height="70" viewBox="0 0 69 70" fill="none" xmlns="http://www.w3.org/2000/svg">
<g filter="url(#filter0_d)">
<ellipse cx="34.2207" cy="21.6023" rx="16.2207" ry="16.6023" fill="#F53838"/>
</g>
<path d="M39.3125 22C39.3125 23.409 38.7528 24.7602 37.7565 25.7565C36.7602 26.7528 35.409 27.3125 34 27.3125C32.591 27.3125 31.2398 26.7528 30.2435 25.7565C29.2472 24.7602 28.6875 23.409 28.6875 22C28.6875 21.6972 28.7194 21.4015 28.7743 21.1146H26.9167V28.1926C26.9167 28.6849 27.3151 29.0833 27.8074 29.0833H40.1944C40.4303 29.0829 40.6564 28.9888 40.8231 28.8218C40.9897 28.6548 41.0833 28.4285 41.0833 28.1926V21.1146H39.2257C39.2806 21.4015 39.3125 21.6972 39.3125 22ZM34 25.5417C34.4652 25.5415 34.9258 25.4498 35.3556 25.2717C35.7854 25.0935 36.1758 24.8325 36.5047 24.5035C36.8336 24.1744 37.0944 23.7838 37.2723 23.354C37.4503 22.9241 37.5418 22.4634 37.5417 21.9982C37.5415 21.533 37.4498 21.0724 37.2717 20.6426C37.0935 20.2129 36.8325 19.8224 36.5035 19.4935C36.1744 19.1647 35.7838 18.9038 35.354 18.7259C34.9241 18.548 34.4634 18.4564 33.9982 18.4566C33.0587 18.4568 32.1577 18.8303 31.4935 19.4948C30.8293 20.1593 30.4563 21.0605 30.4566 22C30.4568 22.9395 30.8303 23.8405 31.4948 24.5047C32.1593 25.1689 33.0605 25.5419 34 25.5417ZM38.25 18.2812H40.3732C40.5143 18.2812 40.6496 18.2253 40.7495 18.1258C40.8494 18.0262 40.9058 17.8911 40.9062 17.75V15.6268C40.9062 15.4854 40.8501 15.3498 40.7501 15.2499C40.6502 15.1499 40.5146 15.0937 40.3732 15.0937H38.25C38.1086 15.0937 37.9731 15.1499 37.8731 15.2499C37.7731 15.3498 37.717 15.4854 37.717 15.6268V17.75C37.7188 18.0422 37.9578 18.2812 38.25 18.2812ZM34 5C29.4913 5 25.1673 6.79107 21.9792 9.97918C18.7911 13.1673 17 17.4913 17 22C17 26.5087 18.7911 30.8327 21.9792 34.0208C25.1673 37.2089 29.4913 39 34 39C36.2325 39 38.4431 38.5603 40.5056 37.706C42.5682 36.8516 44.4422 35.5994 46.0208 34.0208C47.5994 32.4422 48.8516 30.5682 49.706 28.5056C50.5603 26.4431 51 24.2325 51 22C51 19.7675 50.5603 17.5569 49.706 15.4944C48.8516 13.4318 47.5994 11.5578 46.0208 9.97918C44.4422 8.40059 42.5682 7.14838 40.5056 6.29405C38.4431 5.43972 36.2325 5 34 5ZM42.8542 28.8868C42.8542 29.9688 41.9688 30.8542 40.8868 30.8542H27.1132C26.0312 30.8542 25.1458 29.9688 25.1458 28.8868V15.1132C25.1458 14.0312 26.0312 13.1458 27.1132 13.1458H40.8868C41.9688 13.1458 42.8542 14.0312 42.8542 15.1132V28.8868Z" fill="#FCFFFF"/>
<defs>
<filter id="filter0_d" x="0" y="0" width="68.4413" height="69.2046" filterUnits="userSpaceOnUse" color-interpolation-filters="sRGB">
<feFlood flood-opacity="0" result="BackgroundImageFix"/>
<feColorMatrix in="SourceAlpha" type="matrix" values="0 0 0 0 0 0 0 0 0 0 0 0 0 0 0 0 0 0 127 0"/>
<feOffset dy="13"/>
<feGaussianBlur stdDeviation="9"/>
<feColorMatrix type="matrix" values="0 0 0 0 0.0658854 0 0 0 0 0.0730469 0 0 0 0 0.1375 0 0 0 0.08 0"/>
<feBlend mode="normal" in2="BackgroundImageFix" result="effect1_dropShadow"/>
<feBlend mode="normal" in="SourceGraphic" in2="effect1_dropShadow" result="shape"/>
</filter>
</defs>
</svg>
