<svg width="14" height="13" viewBox="0 0 14 13" fill="none" xmlns="http://www.w3.org/2000/svg">
<path d="M13.1891 4.51721L9.22187 3.94064L7.44844 0.345331C7.4 0.246893 7.32031 0.167205 7.22187 0.118768C6.975 -0.00310701 6.675 0.0984555 6.55156 0.345331L4.77812 3.94064L0.810936 4.51721C0.701561 4.53283 0.601561 4.58439 0.524999 4.66252C0.432439 4.75765 0.381434 4.88564 0.383192 5.01836C0.38495 5.15109 0.439327 5.27768 0.534374 5.37033L3.40469 8.16877L2.72656 12.1203C2.71066 12.2123 2.72083 12.3068 2.75592 12.3932C2.79102 12.4797 2.84963 12.5545 2.92511 12.6094C3.00059 12.6642 3.08992 12.6968 3.18297 12.7034C3.27602 12.71 3.36907 12.6904 3.45156 12.6469L7 10.7813L10.5484 12.6469C10.6453 12.6985 10.7578 12.7156 10.8656 12.6969C11.1375 12.65 11.3203 12.3922 11.2734 12.1203L10.5953 8.16877L13.4656 5.37033C13.5437 5.29377 13.5953 5.19377 13.6109 5.08439C13.6531 4.81096 13.4625 4.55783 13.1891 4.51721Z" fill="#FEA250"/>
</svg>
